<svg xmlns="http://www.w3.org/2000/svg" viewBox="0 0 2412.61 733.7"><defs><style>.cls-1{fill:#fff;}</style></defs><g id="Layer_2" data-name="Layer 2"><g id="Layer_1-2" data-name="Layer 1"><rect width="2412.61" height="733.7" rx="93.26"/><path class="cls-1" d="M149.78,299.79c-39.14,67.91-14.26,171,29,233.47,21.6,31.25,43.48,59.29,73.43,59.29.57,0,1.13,0,1.71,0,14.08-.55,24.25-4.89,34.08-9.08,11-4.7,22.47-9.56,40.38-9.56,17,0,27.91,4.7,38.42,9.25s21,9.13,36.82,8.83c33.74-.63,54.46-30.89,72.74-57.59a254.88,254.88,0,0,0,31.87-65.28l.13-.42a3.79,3.79,0,0,0-2-4.65l-.27-.12c-5.94-2.43-58.07-25.55-58.62-88.58-.51-51.21,39.1-78.32,47-83.23l.37-.24a3.78,3.78,0,0,0,1.08-5.33c-27.34-40-69.25-46-86.13-46.76a74,74,0,0,0-7.5-.37c-19.82,0-38.81,7.48-54.06,13.5-10.53,4.15-19.62,7.73-25.89,7.73-7.05,0-16.2-3.63-26.78-7.82-14.17-5.63-30.22-12-47.21-12l-1.19,0C207.69,241.39,170.36,264,149.78,299.79Z"/><path class="cls-1" d="M409.88,129.61c-23.92,1-52.63,15.7-69.78,35.8-14.58,16.88-28.82,45-25.07,73.43a3.81,3.81,0,0,0,3.47,3.29c1.62.12,3.26.18,4.9.18,23.4,0,48.64-12.94,65.87-33.78,18.14-22,27.31-50.25,24.54-75.54A3.81,3.81,0,0,0,409.88,129.61Z"/><path class="cls-1" d="M685.17,127.66h45.37q17.85,0,31.69,7.37a53.88,53.88,0,0,1,21.54,20.39,57,57,0,0,1,7.7,29.57,57,57,0,0,1-7.7,29.56,53.81,53.81,0,0,1-21.54,20.39q-13.83,7.38-31.69,7.38H685.17Zm44.71,107.12q15.89,0,28-6.3a45.21,45.21,0,0,0,18.68-17.61A50.74,50.74,0,0,0,783.12,185a50.72,50.72,0,0,0-6.55-25.88,45.15,45.15,0,0,0-18.68-17.61q-12.12-6.3-28-6.3H693.52v99.58Z"/><path class="cls-1" d="M829.39,237.4a40.06,40.06,0,0,1-15.32-15.48,47.65,47.65,0,0,1,0-44.71,40.06,40.06,0,0,1,15.32-15.48,45.7,45.7,0,0,1,43.73,0,40.1,40.1,0,0,1,15.31,15.48,47.65,47.65,0,0,1,0,44.71,40.1,40.1,0,0,1-15.31,15.48,45.7,45.7,0,0,1-43.73,0ZM868.86,231a32.9,32.9,0,0,0,12.29-12.77,41,41,0,0,0,0-37.35,33,33,0,0,0-12.29-12.77,36.06,36.06,0,0,0-35.21,0,32.9,32.9,0,0,0-12.29,12.77,41,41,0,0,0,0,37.35A32.83,32.83,0,0,0,833.65,231a36.06,36.06,0,0,0,35.21,0Z"/><path class="cls-1" d="M1039.12,156.82l-32.43,85.5H999l-28.82-74.2-29,74.2h-7.53l-32.43-85.5h7.86l28.5,76.32,29.16-76.32h7l29,76.16,28.83-76.16Z"/><path class="cls-1" d="M1125.28,165.5q9.33,9.33,9.33,26.86v50h-8.19V193q0-14.4-7.29-21.94t-20.39-7.54q-15.06,0-23.75,9t-8.68,24.24v45.54h-8.19v-85.5H1066v18.5a32.54,32.54,0,0,1,13.19-14.08q8.76-5.09,20.72-5.08Q1115.94,156.16,1125.28,165.5Z"/><path class="cls-1" d="M1168.35,120.78h8.19V242.32h-8.19Z"/><path class="cls-1" d="M1222.65,237.4a40.06,40.06,0,0,1-15.32-15.48,47.65,47.65,0,0,1,0-44.71,40.06,40.06,0,0,1,15.32-15.48,45.7,45.7,0,0,1,43.73,0,40.12,40.12,0,0,1,15.32,15.48,47.72,47.72,0,0,1,0,44.71,40.12,40.12,0,0,1-15.32,15.48,45.7,45.7,0,0,1-43.73,0Zm39.47-6.39a32.9,32.9,0,0,0,12.29-12.77,41,41,0,0,0,0-37.35,33,33,0,0,0-12.29-12.77,36.06,36.06,0,0,0-35.21,0,32.9,32.9,0,0,0-12.29,12.77,41,41,0,0,0,0,37.35A32.83,32.83,0,0,0,1226.91,231a36.06,36.06,0,0,0,35.21,0Z"/><path class="cls-1" d="M1365.56,164.27q8.51,8.1,8.51,23.83v54.22h-7.86V227.08a28.37,28.37,0,0,1-12,11.71q-7.87,4.19-18.84,4.18-14.25,0-22.52-6.71a21.67,21.67,0,0,1-8.27-17.69q0-10.65,7.61-17.28t24.33-6.64h29.31v-6.88q0-12-6.47-18.18t-18.91-6.22a45.49,45.49,0,0,0-16.3,2.95,40.77,40.77,0,0,0-13.19,7.86l-4.09-5.9a45.55,45.55,0,0,1,15.4-8.93,56.12,56.12,0,0,1,18.83-3.19Q1357,156.16,1365.56,164.27Zm-10.9,67.07a29.81,29.81,0,0,0,11.22-14.25V201h-29.15q-12.62,0-18.26,4.59t-5.65,12.61a15.77,15.77,0,0,0,6.22,13.18q6.23,4.85,17.53,4.84Q1347.21,236.26,1354.66,231.34Z"/><path class="cls-1" d="M1484,120.78V242.32h-8V222.17a36.83,36.83,0,0,1-14.25,15.4,40.24,40.24,0,0,1-20.8,5.4,42.44,42.44,0,0,1-21.62-5.57A39.73,39.73,0,0,1,1404.13,222a45.24,45.24,0,0,1-5.49-22.44,45.72,45.72,0,0,1,5.49-22.53,39.07,39.07,0,0,1,15.15-15.39,43,43,0,0,1,21.62-5.49,39.38,39.38,0,0,1,20.55,5.41,38.48,38.48,0,0,1,14.34,15.07V120.78ZM1459,231a32.88,32.88,0,0,0,12.28-12.77,40.92,40.92,0,0,0,0-37.35A33,33,0,0,0,1459,168.12a36.08,36.08,0,0,0-35.22,0,32.88,32.88,0,0,0-12.28,12.77,40.92,40.92,0,0,0,0,37.35A32.81,32.81,0,0,0,1423.78,231a36.08,36.08,0,0,0,35.22,0Z"/><path class="cls-1" d="M1572.17,237.4a40.1,40.1,0,0,1-15.31-15.48,47.65,47.65,0,0,1,0-44.71,40.1,40.1,0,0,1,15.31-15.48,45.72,45.72,0,0,1,43.74,0,40.1,40.1,0,0,1,15.31,15.48,47.65,47.65,0,0,1,0,44.71,40.1,40.1,0,0,1-15.31,15.48,45.72,45.72,0,0,1-43.74,0Zm39.48-6.39a32.88,32.88,0,0,0,12.28-12.77,40.92,40.92,0,0,0,0-37.35,33,33,0,0,0-12.28-12.77,36.08,36.08,0,0,0-35.22,0,33,33,0,0,0-12.28,12.77,40.92,40.92,0,0,0,0,37.35A32.88,32.88,0,0,0,1576.43,231a36.08,36.08,0,0,0,35.22,0Z"/><path class="cls-1" d="M1729.33,165.5q9.35,9.33,9.34,26.86v50h-8.19V193q0-14.4-7.29-21.94t-20.39-7.54q-15.08,0-23.75,9t-8.68,24.24v45.54h-8.19v-85.5H1670v18.5a32.52,32.52,0,0,1,13.18-14.08q8.77-5.09,20.72-5.08Q1720,156.16,1729.33,165.5Z"/><path class="cls-1" d="M1856.92,236.91a20.47,20.47,0,0,1-7.78,4.51,30.8,30.8,0,0,1-9.74,1.55q-11.14,0-17.2-6.14t-6.06-17.12V163.86h-15.73v-7h15.73V138.14h8.19v18.68h27.19v7h-27.19v55q0,8.36,4,12.7c2.68,2.89,6.63,4.34,11.88,4.34a19,19,0,0,0,13.26-4.75Z"/><path class="cls-1" d="M1946.84,165.5q9.35,9.33,9.34,26.86v50H1948V193q0-14.4-7.29-21.94t-20.39-7.54q-15.07,0-23.75,9t-8.68,24.24v45.54h-8.19V120.78h8.19v53.89A31.41,31.41,0,0,1,1901,161q8.68-4.83,20.48-4.83Q1937.51,156.16,1946.84,165.5Z"/><path class="cls-1" d="M2062.31,201.53h-73.54a35.69,35.69,0,0,0,5.08,17.77,32.41,32.41,0,0,0,12.86,12A38.64,38.64,0,0,0,2025,235.6a39.14,39.14,0,0,0,15.48-3,30.17,30.17,0,0,0,11.87-8.93l4.75,5.41a36.44,36.44,0,0,1-14,10.32,48.78,48.78,0,0,1-41-2A40.31,40.31,0,0,1,1986.4,222a44.19,44.19,0,0,1-5.65-22.44,46.49,46.49,0,0,1,5.32-22.36,39.19,39.19,0,0,1,14.66-15.48,42.35,42.35,0,0,1,41.85-.08A38.93,38.93,0,0,1,2057.15,177a46,46,0,0,1,5.33,22.28Zm-56.83-34.15a30.54,30.54,0,0,0-11.55,11.3,36.79,36.79,0,0,0-5,16.46h65.51a34.22,34.22,0,0,0-4.91-16.38,31.8,31.8,0,0,0-27.85-15.39A32.8,32.8,0,0,0,2005.48,167.38Z"/><path class="cls-1" d="M806.43,495.78h-98l-19.32,45.35h-37.5l88.17-195.94h35.82l88.45,195.94H826Zm-12-28.55-36.95-85.65-36.67,85.65Z"/><path class="cls-1" d="M1007.54,399.49a68.69,68.69,0,0,1,27,26.87q9.79,17.37,9.8,40t-9.8,40.17a68.33,68.33,0,0,1-27,27q-17.2,9.51-39,9.52-30.24,0-47.87-20.16v72.5h-35V391.66H919v19.59a54.07,54.07,0,0,1,21.42-15.95A72.2,72.2,0,0,1,968.5,390Q990.33,390,1007.54,399.49ZM996.35,500.26q12.45-12.87,12.45-33.87t-12.45-33.87q-12.47-12.87-31.77-12.87a44.92,44.92,0,0,0-22.67,5.74,41.43,41.43,0,0,0-16,16.37q-5.88,10.64-5.88,24.63T926,491a41.4,41.4,0,0,0,16,16.38,44.92,44.92,0,0,0,22.67,5.74Q983.89,513.14,996.35,500.26Z"/><path class="cls-1" d="M1199.56,399.49a68.82,68.82,0,0,1,27,26.87q9.79,17.37,9.79,40t-9.79,40.17a68.46,68.46,0,0,1-27,27q-17.22,9.51-39,9.52-30.23,0-47.87-20.16v72.5h-35V391.66H1111v19.59a54,54,0,0,1,21.41-15.95,72.2,72.2,0,0,1,28.13-5.32Q1182.34,390,1199.56,399.49Zm-11.2,100.77q12.45-12.87,12.46-33.87t-12.46-33.87q-12.46-12.87-31.77-12.87a44.94,44.94,0,0,0-22.67,5.74,41.43,41.43,0,0,0-16,16.37q-5.88,10.64-5.87,24.63T1118,491a41.4,41.4,0,0,0,16,16.38,44.94,44.94,0,0,0,22.67,5.74Q1175.91,513.14,1188.36,500.26Z"/><path class="cls-1" d="M1367.21,537.49q-21.14-6.43-33.45-17.08l12.6-28.27q12,9.53,29.53,15.54a107.41,107.41,0,0,0,35.13,6q21.82,0,32.61-7t10.77-18.48a17.87,17.87,0,0,0-6-13.85,42.29,42.29,0,0,0-15.25-8.54q-9.24-3.07-25.19-7-22.39-5.31-36.25-10.63a59.63,59.63,0,0,1-23.79-16.66q-9.95-11.32-9.94-30.65a52.29,52.29,0,0,1,8.82-29.53q8.82-13.29,26.59-21.13t43.53-7.84a140.8,140.8,0,0,1,35.26,4.48,97.47,97.47,0,0,1,29.95,12.88L1470.64,388a113.75,113.75,0,0,0-26.87-11.48,100.72,100.72,0,0,0-27.15-3.92q-21.57,0-32,7.28t-10.5,19.31a17.44,17.44,0,0,0,6,13.72,43.31,43.31,0,0,0,15.25,8.4q9.24,3.07,25.19,7,21.84,5,35.83,10.5a61.28,61.28,0,0,1,23.93,16.66q9.95,11.19,9.94,30.23a51.61,51.61,0,0,1-8.82,29.39q-8.81,13.15-26.73,21T1411,543.93A149.56,149.56,0,0,1,1367.21,537.49Z"/><path class="cls-1" d="M1612.83,533a41.23,41.23,0,0,1-15,7.56,67.36,67.36,0,0,1-18.61,2.52q-24.63,0-38.07-12.88t-13.43-37.51V420.77h-24.63v-28h24.63V358.63h35v34.15h40v28h-40v71.09q0,10.92,5.31,16.66t15.4,5.74q11.76,0,19.59-6.16Z"/><path class="cls-1" d="M1662.93,533.29A71.43,71.43,0,0,1,1634.52,506q-10.21-17.49-10.21-39.61t10.21-39.46a71.79,71.79,0,0,1,28.41-27.16q18.19-9.79,40.87-9.79,23,0,41.15,9.79a71.92,71.92,0,0,1,28.41,27.16q10.22,17.35,10.21,39.46T1773.36,506A71.56,71.56,0,0,1,1745,533.29q-18.21,9.8-41.15,9.8Q1681.12,543.09,1662.93,533.29Zm72.78-33q12.6-12.87,12.59-33.87t-12.59-33.87q-12.6-12.87-31.91-12.87T1672,432.52q-12.46,12.89-12.46,33.87T1672,500.26q12.45,12.88,31.77,12.88T1735.71,500.26Z"/><path class="cls-1" d="M1903.65,390v33.31a44.43,44.43,0,0,0-8.12-.84q-20.43,0-31.91,11.89t-11.47,34.29v72.5h-35V391.66h33.31v21.83Q1865.57,390,1903.65,390Z"/><path class="cls-1" d="M2071.87,477.59H1954.59a40.64,40.64,0,0,0,16.1,26.17q13,9.66,32.33,9.66,24.63,0,40.58-16.24l18.76,21.55a63.13,63.13,0,0,1-25.47,18.2q-15.41,6.15-34.71,6.16-24.63,0-43.39-9.8a70.57,70.57,0,0,1-29-27.29q-10.21-17.49-10.21-39.61,0-21.83,9.93-39.33a70.57,70.57,0,0,1,27.57-27.29q17.64-9.79,39.75-9.79,21.83,0,39.05,9.65a68.54,68.54,0,0,1,26.87,27.15q9.64,17.5,9.65,40.45C2072.43,469.66,2072.25,473.11,2071.87,477.59ZM1968.45,427.9q-11.62,9.94-14.14,26.46h84.82q-2.25-16.23-13.72-26.32T1996.86,418Q1980.06,418,1968.45,427.9Z"/></g></g></svg>