<svg xmlns="http://www.w3.org/2000/svg" viewBox="0 0 2412.61 733.7"><defs><style>.cls-1{fill:#fff;}</style></defs><g id="Layer_2" data-name="Layer 2"><g id="Layer_1-2" data-name="Layer 1"><rect width="2412.61" height="733.7" rx="93.26"/><path class="cls-1" d="M750.28,210.05h-66.5l-14.57,32.27h-9l52.74-114.66h8.35L774,242.32h-9Zm-3.11-7L717,136.83l-30,66.18Z"/><path class="cls-1" d="M856.59,156.82l-38.66,85.5h-8.35l-38.49-85.5h8.68l34.07,76.49,34.39-76.49Z"/><path class="cls-1" d="M925.05,164.27q8.52,8.1,8.52,23.83v54.22h-7.86V227.08a28.39,28.39,0,0,1-12,11.71Q905.89,243,894.91,243q-14.25,0-22.52-6.72a23.21,23.21,0,0,1-.65-35q7.62-6.64,24.32-6.64h29.32v-6.88q0-12-6.47-18.18T900,163.37a45.44,45.44,0,0,0-16.29,2.95,40.66,40.66,0,0,0-13.19,7.86l-4.09-5.9a45.41,45.41,0,0,1,15.39-8.93,56.22,56.22,0,0,1,18.84-3.19Q916.54,156.16,925.05,164.27Zm-10.89,67.07a29.81,29.81,0,0,0,11.22-14.25V201H896.23q-12.62,0-18.27,4.59t-5.65,12.61a15.76,15.76,0,0,0,6.23,13.18q6.21,4.85,17.52,4.83Q906.71,236.25,914.16,231.34Z"/><path class="cls-1" d="M966.66,134.13a6.16,6.16,0,0,1-2-4.67,6.71,6.71,0,0,1,6.72-6.71,6.66,6.66,0,0,1,4.75,1.88,6.21,6.21,0,0,1,2,4.67,6.69,6.69,0,0,1-6.71,6.71A6.59,6.59,0,0,1,966.66,134.13Zm.65,22.69h8.19v85.5h-8.19Z"/><path class="cls-1" d="M1010.06,120.78h8.19V242.32h-8.19Z"/><path class="cls-1" d="M1106,164.27q8.51,8.1,8.51,23.83v54.22h-7.86V227.08a28.37,28.37,0,0,1-12,11.71q-7.87,4.19-18.84,4.18-14.25,0-22.52-6.72a23.22,23.22,0,0,1-.66-35q7.62-6.64,24.33-6.64h29.32v-6.88q0-12-6.47-18.18T1081,163.37a45.53,45.53,0,0,0-16.3,2.95,40.77,40.77,0,0,0-13.19,7.86l-4.09-5.9a45.55,45.55,0,0,1,15.4-8.93,56.12,56.12,0,0,1,18.83-3.19Q1097.51,156.16,1106,164.27Zm-10.89,67.07a29.93,29.93,0,0,0,11.22-14.25V201h-29.16q-12.62,0-18.26,4.59t-5.65,12.61a15.77,15.77,0,0,0,6.22,13.18q6.23,4.85,17.53,4.83Q1087.69,236.25,1095.15,231.34Z"/><path class="cls-1" d="M1212.83,161.65A39.2,39.2,0,0,1,1228,177a45.72,45.72,0,0,1,5.49,22.53A45.24,45.24,0,0,1,1228,222a39.87,39.87,0,0,1-15.15,15.39,42.44,42.44,0,0,1-21.62,5.57,39.82,39.82,0,0,1-20.72-5.49,37.23,37.23,0,0,1-14.33-15.31v20.15h-7.87V120.78h8.19v55.53a37,37,0,0,1,14.25-14.83,40.15,40.15,0,0,1,20.48-5.32A43,43,0,0,1,1212.83,161.65ZM1208.41,231a32.66,32.66,0,0,0,12.36-12.77,40.92,40.92,0,0,0,0-37.35,32.72,32.72,0,0,0-12.36-12.77,34.43,34.43,0,0,0-17.69-4.59,34,34,0,0,0-17.61,4.59,32.88,32.88,0,0,0-12.28,12.77,40.92,40.92,0,0,0,0,37.35A32.81,32.81,0,0,0,1173.11,231a34,34,0,0,0,17.61,4.59A34.43,34.43,0,0,0,1208.41,231Z"/><path class="cls-1" d="M1258.85,120.78H1267V242.32h-8.19Z"/><path class="cls-1" d="M1373.83,201.53h-73.54a35.69,35.69,0,0,0,5.08,17.77,32.41,32.41,0,0,0,12.86,12,38.64,38.64,0,0,0,18.26,4.26,39.14,39.14,0,0,0,15.48-3,30.17,30.17,0,0,0,11.87-8.93l4.75,5.41a36.44,36.44,0,0,1-14,10.32,48.78,48.78,0,0,1-41-2A40.4,40.4,0,0,1,1297.91,222a44.29,44.29,0,0,1-5.65-22.44,46.49,46.49,0,0,1,5.33-22.36,39.12,39.12,0,0,1,14.66-15.48,42.35,42.35,0,0,1,41.85-.08A39.07,39.07,0,0,1,1368.67,177a46,46,0,0,1,5.33,22.28ZM1317,167.38a30.54,30.54,0,0,0-11.55,11.3,36.8,36.8,0,0,0-5,16.46H1366a34.45,34.45,0,0,0-4.91-16.38,31.8,31.8,0,0,0-27.85-15.39A32.8,32.8,0,0,0,1317,167.38Z"/><path class="cls-1" d="M1453,237.4a40,40,0,0,1-15.31-15.48,47.65,47.65,0,0,1,0-44.71A40,40,0,0,1,1453,161.73a45.7,45.7,0,0,1,43.73,0,40.06,40.06,0,0,1,15.32,15.48,47.65,47.65,0,0,1,0,44.71,40.06,40.06,0,0,1-15.32,15.48,45.7,45.7,0,0,1-43.73,0ZM1492.5,231a32.88,32.88,0,0,0,12.28-12.77,41,41,0,0,0,0-37.35,33,33,0,0,0-12.28-12.77,36.08,36.08,0,0,0-35.22,0A32.88,32.88,0,0,0,1445,180.89a40.92,40.92,0,0,0,0,37.35A32.81,32.81,0,0,0,1457.28,231a36.08,36.08,0,0,0,35.22,0Z"/><path class="cls-1" d="M1610.18,165.5q9.35,9.33,9.34,26.86v50h-8.19V193q0-14.4-7.29-21.94t-20.39-7.54q-15.08,0-23.75,9t-8.68,24.24v45.54H1543v-85.5h7.86v18.5a32.52,32.52,0,0,1,13.18-14.08q8.76-5.09,20.72-5.08Q1600.84,156.16,1610.18,165.5Z"/><path class="cls-1" d="M1737.77,236.91a20.4,20.4,0,0,1-7.78,4.5,30.52,30.52,0,0,1-9.74,1.56q-11.14,0-17.2-6.14T1697,219.71V163.86h-15.73v-7H1697V138.14h8.19v18.68h27.19v7h-27.19v55q0,8.36,4,12.7t11.87,4.34a19,19,0,0,0,13.27-4.75Z"/><path class="cls-1" d="M1827.69,165.5q9.35,9.33,9.34,26.86v50h-8.19V193q0-14.4-7.29-21.94t-20.39-7.54q-15.08,0-23.75,9t-8.68,24.24v45.54h-8.19V120.78h8.19v53.89a31.36,31.36,0,0,1,13.1-13.68q8.68-4.83,20.47-4.83Q1818.35,156.16,1827.69,165.5Z"/><path class="cls-1" d="M1943.16,201.53h-73.54a35.69,35.69,0,0,0,5.08,17.77,32.41,32.41,0,0,0,12.86,12,38.64,38.64,0,0,0,18.26,4.26,39.14,39.14,0,0,0,15.48-3,30.17,30.17,0,0,0,11.87-8.93l4.75,5.41a36.44,36.44,0,0,1-14,10.32,48.78,48.78,0,0,1-41-2A40.4,40.4,0,0,1,1867.24,222a44.29,44.29,0,0,1-5.65-22.44,46.49,46.49,0,0,1,5.33-22.36,39.12,39.12,0,0,1,14.66-15.48,42.35,42.35,0,0,1,41.85-.08A39.07,39.07,0,0,1,1938,177a46,46,0,0,1,5.33,22.28Zm-56.83-34.15a30.54,30.54,0,0,0-11.55,11.3,36.8,36.8,0,0,0-5,16.46h65.52a34.45,34.45,0,0,0-4.91-16.38,31.8,31.8,0,0,0-27.85-15.39A32.8,32.8,0,0,0,1886.33,167.38Z"/><path class="cls-1" d="M790.67,443.2h33.65v76.32a107,107,0,0,1-34.47,18.05,132.39,132.39,0,0,1-40.48,6.29q-29.28,0-52.8-12.72A94.51,94.51,0,0,1,659.64,496q-13.39-22.42-13.4-50.61t13.4-50.6a94.29,94.29,0,0,1,37.07-35.15q23.65-12.72,53.2-12.72,24.08,0,43.77,7.93a86,86,0,0,1,33.1,23.25L804.35,400q-21.89-21.89-52.79-21.89-20.25,0-36,8.48A62,62,0,0,0,691,410.37q-8.88,15.33-8.89,35A67.46,67.46,0,0,0,691,479.85a63.71,63.71,0,0,0,24.62,24.07q15.74,8.76,35.7,8.76,22.43,0,39.39-9.85Z"/><path class="cls-1" d="M893.52,533.47a69.81,69.81,0,0,1-27.76-26.67q-10-17.1-10-38.71t10-38.57A70.1,70.1,0,0,1,893.52,403q17.79-9.57,39.94-9.57,22.42,0,40.21,9.57a70.13,70.13,0,0,1,27.77,26.54q10,17,10,38.57t-10,38.71a69.84,69.84,0,0,1-27.77,26.67Q955.9,543,933.46,543,911.31,543,893.52,533.47Zm71.13-32.28Q977,488.61,977,468.09T964.65,435q-12.31-12.58-31.19-12.58T902.41,435q-12.17,12.58-12.17,33.1t12.17,33.1q12.18,12.58,31.05,12.58T964.65,501.19Z"/><path class="cls-1" d="M1070,533.47a69.75,69.75,0,0,1-27.76-26.67q-10-17.1-10-38.71t10-38.57A70,70,0,0,1,1070,403q17.77-9.57,39.94-9.57,22.42,0,40.21,9.57a70.2,70.2,0,0,1,27.77,26.54q10,17,10,38.57t-10,38.71a69.9,69.9,0,0,1-27.77,26.67Q1132.32,543,1109.9,543,1087.75,543,1070,533.47Zm71.12-32.28q12.32-12.58,12.31-33.1T1141.08,435q-12.3-12.58-31.18-12.58T1078.85,435q-12.18,12.58-12.17,33.1t12.17,33.1q12.17,12.58,31.05,12.58T1141.08,501.19Z"/><path class="cls-1" d="M1365.66,395.05V519q0,77.14-78.78,77.14a146.12,146.12,0,0,1-39.94-5.34q-18.87-5.32-31.18-15.45l15.32-25.71q9.57,7.92,24.21,12.72a95.21,95.21,0,0,0,29.68,4.78q24.06,0,35.28-10.94t11.22-33.37v-7.66a56.37,56.37,0,0,1-21.34,14.5,75.26,75.26,0,0,1-27.63,4.92q-20.79,0-37.61-8.89a66.74,66.74,0,0,1-26.53-25q-9.72-16.14-9.71-36.93t9.71-36.79a66.15,66.15,0,0,1,26.53-24.76q16.83-8.75,37.61-8.75a77.15,77.15,0,0,1,28.86,5.2,53.25,53.25,0,0,1,21.75,15.86V395.05Zm-46.09,98.89Q1332,482.32,1332,463.71q0-18.31-12.45-29.81t-31.87-11.49q-19.7,0-32.14,11.49t-12.45,29.81q0,18.62,12.45,30.23t32.14,11.62Q1307.13,505.56,1319.57,493.94Z"/><path class="cls-1" d="M1410.52,338.15h34.19v203h-34.19Z"/><path class="cls-1" d="M1626.35,479H1511.73a39.71,39.71,0,0,0,15.73,25.58q12.72,9.43,31.59,9.43,24.08,0,39.67-15.86l18.33,21.06a61.71,61.71,0,0,1-24.9,17.78q-15,6-33.92,6-24.07,0-42.4-9.57a69,69,0,0,1-28.31-26.67q-10-17.1-10-38.71,0-21.34,9.71-38.44A68.94,68.94,0,0,1,1514.19,403q17.24-9.57,38.85-9.57,21.33,0,38.16,9.44a67,67,0,0,1,26.26,26.53q9.43,17.1,9.43,39.53Q1626.89,472.46,1626.35,479Zm-101.08-48.55q-11.36,9.7-13.81,25.85h82.88q-2.19-15.87-13.4-25.72t-27.9-9.85Q1536.61,420.76,1525.27,430.48Z"/><path class="cls-1" d="M1860.64,357.85q18.46,8.2,28.31,23.52t9.85,36.39q0,20.79-9.85,36.24t-28.31,23.66q-18.47,8.2-43.36,8.21h-43.22v55.26H1738.5V349.64h78.78Q1842.17,349.64,1860.64,357.85Zm-9.72,88.08q12-9.84,12-28.17t-12-28.18q-12-9.85-35.28-9.85h-41.58v76h41.58Q1838.89,455.78,1850.92,445.93Z"/><path class="cls-1" d="M1933.81,338.15H1968v203h-34.19Z"/><path class="cls-1" d="M2118,408.87q17.1,15.45,17.1,46.64v85.62h-32.28V523.35A39.81,39.81,0,0,1,2084.94,538q-11.62,5.06-28,5.06t-28.72-5.61a44.28,44.28,0,0,1-19-15.59,39.54,39.54,0,0,1-6.7-22.57q0-19.69,14.63-31.59t46.09-11.9h37.75v-2.19q0-15.31-9.16-23.52t-27.22-8.21a78.73,78.73,0,0,0-24.21,3.83,59.39,59.39,0,0,0-20.1,10.67l-13.41-24.9a83.11,83.11,0,0,1,27.63-13.4,123,123,0,0,1,34.2-4.65Q2100.93,393.41,2118,408.87Zm-31.18,103.4a32,32,0,0,0,14.08-16.83v-17h-35.28q-29.55,0-29.55,19.43a17.45,17.45,0,0,0,7.39,14.77q7.38,5.48,20.52,5.47A44.19,44.19,0,0,0,2086.86,512.27Z"/><path class="cls-1" d="M2312.94,395.05l-68.38,157.84q-9.58,23.79-23.25,33.51t-33.1,9.71a67.92,67.92,0,0,1-21.61-3.56,47.75,47.75,0,0,1-17.51-9.84l13.68-25.17a37.07,37.07,0,0,0,11.62,7.38,35.45,35.45,0,0,0,13.54,2.74q9,0,14.91-4.65t10.81-15.59l2.46-5.75-63.74-146.62h35.56l46,108.05,46.23-108Z"/><path class="cls-1" d="M580.53,357.48l-91.93-53L413,377.52l69.09,66.79,98.43-56.82a17.34,17.34,0,0,0,0-30Z"/><polygon class="cls-1" points="473.01 295.43 371.85 237.04 150.17 123.44 400.55 365.47 473.01 295.43"/><polygon class="cls-1" points="153.85 628.03 372.23 507.74 466.5 453.32 400.55 389.57 153.85 628.03"/><polygon class="cls-1" points="135.38 133.23 135.14 622.03 388.09 377.51 135.38 133.23"/></g></g></svg>